<svg width="206" height="40" fill="none" xmlns="http://www.w3.org/2000/svg"><path d="M51.07 32.339h12.375v-4.873H51.071v4.873Zm0-19.666h12.375V7.8H51.071v4.872Zm0 9.15h11.674v-4.768H51.071v4.767ZM47.145 7.8v24.539h5.68V7.799h-5.68Zm31.393 14.653L72.544 7.8h-6.906l12.9 26.081L91.474 7.8h-6.941l-5.995 14.653Zm19.434 9.886h12.374v-4.873H97.972v4.873Zm0-19.666h12.374V7.8H97.972v4.872Zm0 9.15h11.673v-4.768H97.972v4.767ZM94.045 7.8v24.539h5.68V7.799h-5.68Zm38.055 0v13.812l-16.932-15.04V32.34h5.679V18.527l16.967 15.039V7.8H132.1Zm8.446 5.293h6.731V32.34h5.925V13.093h6.765V7.8h-19.421v5.293Zm26.031 19.246h12.375v-4.873h-12.375v4.873Zm0-19.666h12.375V7.8h-12.375v4.872Zm0 9.15h11.674v-4.768h-11.674v4.767ZM162.651 7.8v24.539h5.679V7.799h-5.679Zm34.584 0-3.926 7.116-3.786-7.116h-7.327l7.537 11.954-8.413 12.585h7.326l4.628-8.168 4.487 8.168h7.326l-8.238-12.585L204.562 7.8h-7.327Z" fill="#fff"/><path d="M1.073 17.812c-1.672 3.257-1.269 6.11.372 7.75C3.467 27.752-.13 23.37 13.13 15.337 23.737 8.91 21.688 2.434 19.338 0c0 2.394-.948 4.42-2.457 6.053-4.53 4.902-12.76 5.821-15.808 11.76Zm7.349 6.573c-1.672 3.256-1.269 6.109.372 7.75 2.022 2.19-1.574-2.192 11.685-10.225 10.607-6.427 8.558-12.903 6.208-15.337 0 2.393-.948 4.42-2.457 6.053-4.53 4.902-12.76 5.821-15.808 11.76Zm7.348 7.304c-1.67 3.256-1.268 6.109.373 7.75 2.022 2.19-1.574-2.192 11.685-10.226 10.607-6.427 8.558-12.902 6.208-15.337 0 2.394-.948 4.42-2.457 6.053-4.53 4.902-12.76 5.822-15.808 11.76Z" fill="#EE0034"/></svg>